<svg xmlns="http://www.w3.org/2000/svg" width="512" height="512" viewBox="0 0 512 512"><path d="m184.5 102.5.54 40.5h-20.55c-15.78 0-20.67-.3-21.04-1.28-.27-.71-.37-9.82-.22-20.25l.27-18.97Z" fill="#3c76e7"/><path d="M268.28 424.88c-2.08 1.07-30.89 17.47-64.03 36.44L144 495.81l-.24-175.91c-.1-74.99-.19-145.03-.23-178.05.78.88 5.93 1.15 20.96 1.15h19.89l-.25 120.75c-.28 136.48-.12 161.25 1.04 161.25.76 0 4.64-2.02 8.61-4.5 3.98-2.48 7.44-4.5 7.7-4.5.25 0 4.18-2.19 8.74-4.86 4.55-2.67 10.3-6 12.78-7.38 2.48-1.39 11.48-6.55 20-11.45 8.52-4.91 18.51-10.6 22.19-12.63l6.69-3.71 42.15 24.08c23.18 13.25 42.79 24.33 43.56 24.62 1.21.47 1.41-26.01 1.41-186.56V51H103.25l-.64 3.22c-.36 1.77-.62 34.06-.59 71.75l.06 68.53H62.5l-.26-91.63-.25-91.63 2.25-.61c3.7-.99 333.58-.73 334.2.27.63 1.03.79 483.2.16 483.83-.38.39-13.84-7.1-39.1-21.73-10.7-6.21-57.02-32.62-64.5-36.78-2.48-1.38-8.65-4.93-13.72-7.9l-9.21-5.4Z" fill="#F2F7FE"/></svg>